<svg width="23" height="20" viewBox="0 0 23 20" fill="none" xmlns="http://www.w3.org/2000/svg">
<path fill-rule="evenodd" clip-rule="evenodd" d="M19.3021 3.56242C17.4769 1.6563 14.5704 1.48823 12.5554 3.17194L11.3489 4.18036L10.1424 3.17194C8.12731 1.48823 5.22087 1.6563 3.39567 3.56242C1.53674 5.50378 1.42399 8.5723 3.16632 10.5529C4.68218 12.2779 6.44859 14.188 8.03865 15.6604C8.83561 16.3981 9.56608 17.006 10.1838 17.4236C10.8507 17.8735 11.2236 17.9872 11.3489 17.9872C11.4742 17.9872 11.8471 17.8735 12.514 17.4236C13.1317 17.006 13.8621 16.3981 14.6591 15.6604C16.2492 14.188 18.0156 12.2779 19.5314 10.5529C21.2728 8.5723 21.161 5.50378 19.3021 3.56242ZM11.3508 1.59994C14.1339 -0.723845 18.1447 -0.492372 20.6647 2.13836C23.2156 4.80332 23.4276 9.09764 20.9509 11.9146C19.4196 13.6566 17.6012 15.6262 15.9379 17.167C15.1082 17.9359 14.2948 18.6172 13.5595 19.1144C12.8744 19.5773 12.0851 20 11.3489 20C10.6126 20 9.82338 19.5773 9.13821 19.1144C8.40292 18.6172 7.58958 17.9359 6.75986 17.167C5.09656 15.6262 3.2781 13.6566 1.74683 11.9146C-0.729817 9.09764 -0.517808 4.80332 2.03304 2.13836C4.55304 -0.492372 8.56386 -0.723845 11.3469 1.59994L11.3489 1.60195L11.3508 1.59994Z" fill="#B02B2B"/>
</svg>
